# xmcd
#
# Track frame offsets:
#	150
#	18366
#	33114
#	45105
#	57120
#	71121
#	85298
#	100822
#	112616
#	125709
#	137489
#	148788
#	163097
#	178613
#	191911
#	206722
#	221110
#	233936
#	248011
#	259883
#	271984
#
# Disc length: 3827 seconds
#
# Revision: 1
# Processed by: cddbd v1.5.2PL0 Copyright (c) Steve Scherf et al.
# Submitted via: audiograbber 1.83.01
#
DISCID=2f0ef115
DTITLE=Varios - Direito de Viver 16 - Disco 02
DYEAR=2017
DGENRE=Sertanejo
TTITLE0=Escreve Aí - Luan Santana
TTITLE1=Infiel - Marília Mendonça
TTITLE2=Isso Cê Num Conta - Bruno and Marrone
TTITLE3=Mesa 30 - Fernando and Sorocaba
TTITLE4=Eu Quero Mais - Zezé di Camargo and Luciano
TTITLE5=Pergunte ao Dono do Bar - Leonardo
TTITLE6=E Aí - Matogrosso and Mathias
TTITLE7=Pen Drive de Modão - Munhoz and Mariano
TTITLE8=A Mala é Falsa - Felipe Araújo
TTITLE9=Flor Matogrossense - Bruna Viola
TTITLE10=Só a Noite Sabe Dizer - Zé Henrique and Gabriel
TTITLE11=Localizador - Milionário and Marciano
TTITLE12=Vaidades - João Bosco and Vinícius
TTITLE13=Chadon - César Menotti and Fabiano
TTITLE14=Pra Ter Você Aqui - Thaeme and Thiago
TTITLE15=Casa Amarela - Guilherme and Santiago
TTITLE16=A Rosa e o Beija-Flor - Matheus and Kauan
TTITLE17=Amargo Prazer - Teodoro and Sampaio
TTITLE18=Zé Trovão - Jads and Jadson
TTITLE19=Dói só de Pensar - Maria Cecília and Rodolfo
TTITLE20=Telefone Mudo - Trio do Brasil
EXTD=
EXTT0=
EXTT1=
EXTT2=
EXTT3=
EXTT4=
EXTT5=
EXTT6=
EXTT7=
EXTT8=
EXTT9=
EXTT10=
EXTT11=
EXTT12=
EXTT13=
EXTT14=
EXTT15=
EXTT16=
EXTT17=
EXTT18=
EXTT19=
EXTT20=
PLAYORDER=
